<svg width="87" height="32" viewBox="0 0 87 32" fill="none" xmlns="http://www.w3.org/2000/svg">
<rect width="87" height="32" rx="16" fill="#251622"/>
<path fill-rule="evenodd" clip-rule="evenodd" d="M24.3333 12.6666C23.781 12.6666 23.3333 13.1144 23.3333 13.6666C23.3333 14.2189 23.781 14.6666 24.3333 14.6666C24.8856 14.6666 25.3333 14.2189 25.3333 13.6666C25.3333 13.1144 24.8856 12.6666 24.3333 12.6666ZM22 13.6666C22 12.378 23.0447 11.3333 24.3333 11.3333C25.622 11.3333 26.6667 12.378 26.6667 13.6666C26.6667 14.9553 25.622 16 24.3333 16C23.0447 16 22 14.9553 22 13.6666Z" fill="#DB5BBF"/>
<path fill-rule="evenodd" clip-rule="evenodd" d="M24.3333 8.66669C23.2621 8.66613 22.219 9.00964 21.3577 9.64661L24.3333 8.66669ZM24.3329 10C23.5472 9.99955 22.7822 10.2515 22.1505 10.7186C21.5188 11.1858 21.0538 11.8435 20.8242 12.5949C20.8215 12.6037 20.8186 12.6124 20.8156 12.6211C20.6465 13.1023 20.5295 13.4964 20.4249 13.8492C20.4199 13.8659 20.415 13.8825 20.4101 13.899C20.3036 14.258 20.202 14.5973 20.0668 14.921C19.7796 15.6091 19.3618 16.1775 18.5149 16.9468C18.5065 16.9544 18.498 16.9618 18.4893 16.9689C18.2768 17.1432 18.1232 17.3788 18.0498 17.6437C17.9763 17.9086 17.9865 18.1896 18.079 18.4485C18.1714 18.7073 18.3416 18.9313 18.5662 19.0897C18.7908 19.2481 19.0589 19.3332 19.3337 19.3334C21.825 19.3332 24.6107 18.2011 26.5065 16.6212C26.5153 16.6139 26.5242 16.6069 26.5333 16.6C27.149 16.1383 27.6037 15.4945 27.8332 14.76C28.0626 14.0254 28.0552 13.2373 27.8118 12.5072C27.5685 11.7771 27.1015 11.1421 26.4772 10.6921C25.8529 10.2422 25.1025 10 24.3329 10ZM24.3333 8.66669C25.3826 8.66677 26.4056 8.99695 27.2569 9.61048C28.1082 10.2241 28.7449 11.09 29.0767 12.0855C29.4086 13.0811 29.4188 14.1558 29.1059 15.1575C28.7947 16.1537 28.1797 17.0273 27.3472 17.6562C25.2435 19.404 22.1695 20.6667 19.3333 20.6667C18.7836 20.6663 18.247 20.4961 17.7978 20.1793C17.3486 19.8625 17.0082 19.4146 16.8233 18.8969C16.6384 18.3792 16.6181 17.8171 16.765 17.2874C16.9102 16.7636 17.2121 16.2968 17.6298 15.9495C18.3743 15.2716 18.648 14.8587 18.8364 14.4073C18.9396 14.1602 19.0222 13.8892 19.1319 13.5196C19.1371 13.5019 19.1424 13.4841 19.1478 13.4661C19.2514 13.1166 19.3753 12.699 19.5532 12.1916C19.8678 11.1727 20.5001 10.2809 21.3577 9.64661" fill="#DB5BBF"/>
<path d="M19.4111 21.1151C19.3186 20.8563 19.3084 20.5752 19.3819 20.3103L17.3334 19.6666L18.1554 21.5635C18.3403 22.0812 18.6806 22.5291 19.1299 22.8459C19.5791 23.1627 20.1157 23.3329 20.6654 23.3333C23.5016 23.3333 26.5756 22.0707 28.6793 20.3228C29.5118 19.6939 30.1268 18.8203 30.438 17.8241C30.7509 16.8225 30.7407 15.7477 30.4088 14.7522C30.0769 13.7566 28.3334 10.6666 28.3334 10.6666L29 15C29.2434 15.7301 29.3947 16.692 29.1653 17.4266C28.9358 18.1612 28.481 18.8049 27.8654 19.2666C27.8563 19.2735 27.8473 19.2805 27.8386 19.2878C25.9428 20.8677 23.1571 21.9998 20.6658 22C20.391 21.9998 20.1229 21.9147 19.8983 21.7563C19.6737 21.5979 19.5035 21.3739 19.4111 21.1151Z" fill="#DB5BBF"/>
<path d="M41.6477 20.1278C40.9943 20.1278 40.4332 19.9844 39.9645 19.6974C39.4986 19.4105 39.1392 19.0142 38.8864 18.5085C38.6364 18 38.5114 17.4148 38.5114 16.7528C38.5114 16.0881 38.6392 15.5014 38.8949 14.9929C39.1506 14.4815 39.5114 14.0838 39.9773 13.7997C40.446 13.5128 41 13.3693 41.6392 13.3693C42.1705 13.3693 42.6406 13.4673 43.0497 13.6634C43.4616 13.8565 43.7898 14.1307 44.0341 14.4858C44.2784 14.8381 44.4176 15.25 44.4517 15.7216H42.9773C42.9176 15.4062 42.7756 15.1435 42.5511 14.9332C42.3295 14.7202 42.0327 14.6136 41.6605 14.6136C41.3452 14.6136 41.0682 14.6989 40.8295 14.8693C40.5909 15.0369 40.4048 15.2784 40.2713 15.5938C40.1406 15.9091 40.0753 16.2869 40.0753 16.7273C40.0753 17.1733 40.1406 17.5568 40.2713 17.8778C40.402 18.196 40.5852 18.4418 40.821 18.6151C41.0597 18.7855 41.3395 18.8707 41.6605 18.8707C41.8878 18.8707 42.0909 18.8281 42.2699 18.7429C42.4517 18.6548 42.6037 18.5284 42.7259 18.3636C42.848 18.1989 42.9318 17.9986 42.9773 17.7628H44.4517C44.4148 18.2259 44.2784 18.6364 44.0426 18.9943C43.8068 19.3494 43.4858 19.6278 43.0795 19.8295C42.6733 20.0284 42.196 20.1278 41.6477 20.1278ZM47.6019 20.1321C47.1871 20.1321 46.8136 20.0582 46.4812 19.9105C46.1516 19.7599 45.8903 19.5384 45.6971 19.2457C45.5067 18.9531 45.4116 18.5923 45.4116 18.1634C45.4116 17.794 45.4798 17.4886 45.6161 17.2472C45.7525 17.0057 45.9386 16.8125 46.1744 16.6676C46.4102 16.5227 46.6758 16.4134 46.9712 16.3395C47.2695 16.2628 47.5778 16.2074 47.896 16.1733C48.2795 16.1335 48.5906 16.098 48.8292 16.0668C49.0678 16.0327 49.2411 15.9815 49.3491 15.9134C49.4599 15.8423 49.5153 15.733 49.5153 15.5852V15.5597C49.5153 15.2386 49.4201 14.9901 49.2298 14.8139C49.0394 14.6378 48.7653 14.5497 48.4073 14.5497C48.0295 14.5497 47.7298 14.6321 47.5082 14.7969C47.2894 14.9616 47.1417 15.1562 47.065 15.3807L45.6246 15.1761C45.7383 14.7784 45.9258 14.446 46.1871 14.179C46.4485 13.9091 46.7681 13.7074 47.146 13.5739C47.5238 13.4375 47.9414 13.3693 48.3988 13.3693C48.7141 13.3693 49.0281 13.4062 49.3406 13.4801C49.6531 13.554 49.9386 13.6761 50.1971 13.8466C50.4556 14.0142 50.663 14.2429 50.8192 14.5327C50.9783 14.8224 51.0579 15.1847 51.0579 15.6193V20H49.5749V19.1009H49.5238C49.43 19.2827 49.2979 19.4531 49.1275 19.6122C48.9599 19.7685 48.7482 19.8949 48.4925 19.9915C48.2397 20.0852 47.9428 20.1321 47.6019 20.1321ZM48.0025 18.9986C48.3121 18.9986 48.5806 18.9375 48.8079 18.8153C49.0352 18.6903 49.2099 18.5256 49.332 18.321C49.457 18.1165 49.5195 17.8935 49.5195 17.652V16.8807C49.4712 16.9205 49.3888 16.9574 49.2724 16.9915C49.1587 17.0256 49.0309 17.0554 48.8888 17.081C48.7468 17.1065 48.6062 17.1293 48.467 17.1491C48.3278 17.169 48.207 17.1861 48.1048 17.2003C47.8746 17.2315 47.6687 17.2827 47.4869 17.3537C47.305 17.4247 47.1616 17.5241 47.0565 17.652C46.9513 17.777 46.8988 17.9389 46.8988 18.1378C46.8988 18.4219 47.0025 18.6364 47.2099 18.7812C47.4173 18.9261 47.6815 18.9986 48.0025 18.9986ZM52.609 20V13.4545H54.1048V14.5455H54.1729C54.2923 14.1676 54.4968 13.8764 54.7866 13.6719C55.0792 13.4645 55.413 13.3608 55.788 13.3608C55.8732 13.3608 55.9684 13.3651 56.0735 13.3736C56.1815 13.3793 56.271 13.3892 56.342 13.4034V14.8224C56.2766 14.7997 56.1729 14.7798 56.0309 14.7628C55.8917 14.7429 55.7567 14.733 55.6261 14.733C55.3448 14.733 55.092 14.794 54.8675 14.9162C54.646 15.0355 54.4712 15.2017 54.3434 15.4148C54.2156 15.6278 54.1516 15.8736 54.1516 16.152V20H52.609ZM58.9094 16.1648V20H57.3668V13.4545H58.8413V14.5668H58.918C59.0685 14.2003 59.3086 13.9091 59.6381 13.6932C59.9705 13.4773 60.381 13.3693 60.8697 13.3693C61.3214 13.3693 61.7148 13.4659 62.0501 13.6591C62.3881 13.8523 62.6495 14.1321 62.8342 14.4986C63.0217 14.8651 63.114 15.3097 63.1112 15.8324V20H61.5685V16.071C61.5685 15.6335 61.4549 15.2912 61.2276 15.044C61.0032 14.7969 60.6921 14.6733 60.2944 14.6733C60.0245 14.6733 59.7844 14.733 59.5742 14.8523C59.3668 14.9687 59.2035 15.1378 59.0842 15.3594C58.9677 15.581 58.9094 15.8494 58.9094 16.1648ZM67.5771 20.1278C66.9208 20.1278 66.354 19.9915 65.8768 19.7188C65.4023 19.4432 65.0373 19.054 64.7816 18.5511C64.5259 18.0455 64.3981 17.4503 64.3981 16.7656C64.3981 16.0923 64.5259 15.5014 64.7816 14.9929C65.0401 14.4815 65.4009 14.0838 65.864 13.7997C66.3271 13.5128 66.8711 13.3693 67.4961 13.3693C67.8995 13.3693 68.2802 13.4347 68.6381 13.5653C68.9989 13.6932 69.3171 13.892 69.5927 14.1619C69.8711 14.4318 70.0898 14.7756 70.2489 15.1932C70.408 15.608 70.4876 16.1023 70.4876 16.6761V17.1491H65.1225V16.1094H69.0089C69.006 15.8139 68.9421 15.5511 68.8171 15.321C68.6921 15.0881 68.5174 14.9048 68.293 14.7713C68.0714 14.6378 67.8129 14.571 67.5174 14.571C67.2021 14.571 66.9251 14.6477 66.6864 14.8011C66.4478 14.9517 66.2617 15.1506 66.1282 15.3977C65.9975 15.642 65.9308 15.9105 65.9279 16.2031V17.1108C65.9279 17.4915 65.9975 17.8182 66.1367 18.0909C66.2759 18.3608 66.4705 18.5682 66.7205 18.7131C66.9705 18.8551 67.2631 18.9261 67.5984 18.9261C67.8228 18.9261 68.0259 18.8949 68.2077 18.8324C68.3896 18.767 68.5472 18.6719 68.6808 18.5469C68.8143 18.4219 68.9151 18.267 68.9833 18.0824L70.4237 18.2443C70.3327 18.625 70.1594 18.9574 69.9038 19.2415C69.6509 19.5227 69.3271 19.7415 68.9322 19.8977C68.5373 20.0511 68.0856 20.1278 67.5771 20.1278Z" fill="#DB5BBF"/>
</svg>
