<svg width="83" height="32" viewBox="0 0 83 32" fill="none" xmlns="http://www.w3.org/2000/svg">
<rect width="83" height="32" rx="16" fill="#261A17"/>
<g clip-path="url(#clip0_838_73)">
<path fill-rule="evenodd" clip-rule="evenodd" d="M20.6735 10.6667C21.5549 10.6681 22.3261 10.954 22.9399 11.2655C23.2487 11.4221 23.5253 11.5893 23.7592 11.7354C23.8288 11.7789 23.8925 11.8191 23.9514 11.8563C23.9679 11.8667 23.9841 11.8769 24 11.8869C24.0158 11.8769 24.032 11.8667 24.0486 11.8563C24.1074 11.8191 24.1711 11.7789 24.2407 11.7354C24.4746 11.5893 24.7512 11.4221 25.06 11.2655C25.674 10.9539 26.4455 10.6679 27.3273 10.6667C28.3646 10.649 29.3671 11.0411 30.1171 11.7581C30.8686 12.4766 31.3057 13.4631 31.3331 14.5025C31.3332 14.5083 31.3333 14.5141 31.3333 14.52C31.3333 16.0455 30.8017 18.1759 30.0257 19.9194C29.636 20.7949 29.1672 21.6133 28.6404 22.2246C28.1327 22.8137 27.4635 23.3333 26.6666 23.3333C26.1331 23.3333 25.6199 23.1243 25.2327 22.9667C25.2031 22.9546 25.1743 22.9428 25.1462 22.9315C24.6993 22.751 24.3536 22.6267 24 22.6267C23.6463 22.6267 23.3007 22.751 22.8537 22.9315C22.8257 22.9428 22.7968 22.9546 22.7672 22.9667C22.38 23.1243 21.8669 23.3333 21.3333 23.3333C20.5365 23.3333 19.8672 22.8137 19.3595 22.2246C18.8328 21.6133 18.3639 20.7949 17.9742 19.9194C17.1982 18.1759 16.6666 16.0455 16.6666 14.52L16.6668 14.5038C16.6921 13.4634 17.1287 12.4753 17.881 11.7562C18.6316 11.0386 19.6354 10.647 20.6735 10.6667ZM20.6528 11.9998C19.965 11.9856 19.2996 12.2445 18.8023 12.7199C18.307 13.1935 18.0187 13.8434 18 14.5283C18.002 15.8161 18.47 17.7542 19.1924 19.3772C19.5527 20.1867 19.9588 20.8775 20.3696 21.3542C20.7993 21.8529 21.1301 22 21.3333 22C21.5922 22 21.8748 21.8888 22.3545 21.6952C22.7826 21.5223 23.3536 21.2933 24 21.2933C24.6463 21.2933 25.2173 21.5223 25.6454 21.6952C26.1251 21.8888 26.4077 22 26.6666 22C26.8698 22 27.2006 21.8529 27.6304 21.3542C28.0411 20.8775 28.4473 20.1867 28.8076 19.3772C29.5298 17.7545 29.9978 15.8169 30 14.529C29.9797 13.8445 29.6909 13.1953 29.1957 12.7219C28.6985 12.2466 28.0335 11.987 27.3457 11.9999L27.3333 12C26.7376 12 26.1779 12.1934 25.6633 12.4545C25.407 12.5845 25.1695 12.7274 24.9471 12.8662C24.8953 12.8986 24.8425 12.932 24.7895 12.9654C24.6281 13.0674 24.4651 13.1702 24.3257 13.2483C24.1233 13.3617 23.8766 13.3617 23.6742 13.2483C23.5348 13.1702 23.3718 13.0674 23.2104 12.9654C23.1574 12.932 23.1046 12.8986 23.0528 12.8662C22.8305 12.7274 22.5929 12.5845 22.3366 12.4545C21.8221 12.1934 21.2623 12 20.6666 12L20.6528 11.9998Z" fill="#E07B67"/>
<path fill-rule="evenodd" clip-rule="evenodd" d="M22.0704 9.03517C22.2351 8.70586 22.6355 8.57237 22.9648 8.73703C23.9592 9.23423 24.6667 10.5528 24.6667 12.6666C24.6667 13.0348 24.3682 13.3333 24 13.3333C23.6318 13.3333 23.3334 13.0348 23.3334 12.6666C23.3334 10.7805 22.7075 10.0991 22.3685 9.9296C22.0392 9.76494 21.9057 9.36449 22.0704 9.03517Z" fill="#E07B67"/>
</g>
<path d="M42.108 13.4545V14.6477H38.2386V13.4545H42.108ZM39.206 20V12.8366C39.206 12.3963 39.2969 12.0298 39.4787 11.7372C39.6634 11.4446 39.9105 11.2259 40.2202 11.081C40.5298 10.9361 40.8736 10.8636 41.2514 10.8636C41.5185 10.8636 41.7557 10.8849 41.9631 10.9276C42.1705 10.9702 42.3239 11.0085 42.4233 11.0426L42.1165 12.2358C42.0511 12.2159 41.9688 12.196 41.8693 12.1761C41.7699 12.1534 41.6591 12.142 41.5369 12.142C41.25 12.142 41.0469 12.2116 40.9276 12.3509C40.8111 12.4872 40.7528 12.6832 40.7528 12.9389V20H39.206ZM43.3161 20V13.4545H44.8118V14.5455H44.88C44.9993 14.1676 45.2038 13.8764 45.4936 13.6719C45.7862 13.4645 46.12 13.3608 46.495 13.3608C46.5803 13.3608 46.6754 13.3651 46.7805 13.3736C46.8885 13.3793 46.978 13.3892 47.049 13.4034V14.8224C46.9837 14.7997 46.88 14.7798 46.7379 14.7628C46.5987 14.7429 46.4638 14.733 46.3331 14.733C46.0518 14.733 45.799 14.794 45.5746 14.9162C45.353 15.0355 45.1783 15.2017 45.0504 15.4148C44.9226 15.6278 44.8587 15.8736 44.8587 16.152V20H43.3161ZM52.2457 17.2472V13.4545H53.7884V20H52.2926V18.8366H52.2244C52.0767 19.2031 51.8338 19.5028 51.4957 19.7358C51.1605 19.9687 50.7472 20.0852 50.2557 20.0852C49.8267 20.0852 49.4474 19.9901 49.1179 19.7997C48.7912 19.6065 48.5355 19.3267 48.3509 18.9602C48.1662 18.5909 48.0739 18.1449 48.0739 17.6222V13.4545H49.6165V17.3835C49.6165 17.7983 49.7301 18.1278 49.9574 18.3722C50.1847 18.6165 50.483 18.7386 50.8523 18.7386C51.0795 18.7386 51.2997 18.6832 51.5128 18.5724C51.7259 18.4616 51.9006 18.2969 52.0369 18.0781C52.1761 17.8565 52.2457 17.5795 52.2457 17.2472ZM58.6431 13.4545V14.6477H54.8803V13.4545H58.6431ZM55.8093 11.8864H57.3519V18.0312C57.3519 18.2386 57.3832 18.3977 57.4457 18.5085C57.511 18.6165 57.5962 18.6903 57.7013 18.7301C57.8065 18.7699 57.9229 18.7898 58.0508 18.7898C58.1474 18.7898 58.2354 18.7827 58.315 18.7685C58.3974 18.7543 58.4599 18.7415 58.5025 18.7301L58.7624 19.9361C58.68 19.9645 58.5621 19.9957 58.4087 20.0298C58.2582 20.0639 58.0735 20.0838 57.8548 20.0895C57.4684 20.1009 57.1204 20.0426 56.8107 19.9148C56.5011 19.7841 56.2553 19.5824 56.0735 19.3097C55.8945 19.0369 55.8065 18.696 55.8093 18.2869V11.8864ZM61.8168 20.1321C61.402 20.1321 61.0284 20.0582 60.696 19.9105C60.3665 19.7599 60.1051 19.5384 59.9119 19.2457C59.7216 18.9531 59.6264 18.5923 59.6264 18.1634C59.6264 17.794 59.6946 17.4886 59.831 17.2472C59.9673 17.0057 60.1534 16.8125 60.3892 16.6676C60.625 16.5227 60.8906 16.4134 61.1861 16.3395C61.4844 16.2628 61.7926 16.2074 62.1108 16.1733C62.4943 16.1335 62.8054 16.098 63.044 16.0668C63.2827 16.0327 63.456 15.9815 63.5639 15.9134C63.6747 15.8423 63.7301 15.733 63.7301 15.5852V15.5597C63.7301 15.2386 63.6349 14.9901 63.4446 14.8139C63.2543 14.6378 62.9801 14.5497 62.6222 14.5497C62.2443 14.5497 61.9446 14.6321 61.723 14.7969C61.5043 14.9616 61.3565 15.1562 61.2798 15.3807L59.8395 15.1761C59.9531 14.7784 60.1406 14.446 60.402 14.179C60.6634 13.9091 60.983 13.7074 61.3608 13.5739C61.7386 13.4375 62.1563 13.3693 62.6136 13.3693C62.929 13.3693 63.2429 13.4062 63.5554 13.4801C63.8679 13.554 64.1534 13.6761 64.4119 13.8466C64.6705 14.0142 64.8778 14.2429 65.0341 14.5327C65.1932 14.8224 65.2727 15.1847 65.2727 15.6193V20H63.7898V19.1009H63.7386C63.6449 19.2827 63.5128 19.4531 63.3423 19.6122C63.1747 19.7685 62.9631 19.8949 62.7074 19.9915C62.4545 20.0852 62.1577 20.1321 61.8168 20.1321ZM62.2173 18.9986C62.527 18.9986 62.7955 18.9375 63.0227 18.8153C63.25 18.6903 63.4247 18.5256 63.5469 18.321C63.6719 18.1165 63.7344 17.8935 63.7344 17.652V16.8807C63.6861 16.9205 63.6037 16.9574 63.4872 16.9915C63.3736 17.0256 63.2457 17.0554 63.1037 17.081C62.9616 17.1065 62.821 17.1293 62.6818 17.1491C62.5426 17.169 62.4219 17.1861 62.3196 17.2003C62.0895 17.2315 61.8835 17.2827 61.7017 17.3537C61.5199 17.4247 61.3764 17.5241 61.2713 17.652C61.1662 17.777 61.1136 17.9389 61.1136 18.1378C61.1136 18.4219 61.2173 18.6364 61.4247 18.7812C61.6321 18.9261 61.8963 18.9986 62.2173 18.9986Z" fill="#E07B67"/>
<defs>
<clipPath id="clip0_838_73">
<rect width="16" height="16" fill="white" transform="translate(16 8)"/>
</clipPath>
</defs>
</svg>
