<svg width="97" height="32" viewBox="0 0 97 32" fill="none" xmlns="http://www.w3.org/2000/svg">
<rect width="97" height="32" rx="16" fill="#1C2015"/>
<g clip-path="url(#clip0_838_98)">
<path d="M20.5408 17.0606L21.2897 17.8059C21.5507 18.0656 21.9728 18.0646 22.2325 17.8036C22.4923 17.5426 22.4912 17.1205 22.2302 16.8608L21.2112 15.8467L20.5408 17.0606Z" fill="#8CAD51"/>
<path fill-rule="evenodd" clip-rule="evenodd" d="M23.8829 12.4362C23.4013 12.4358 22.9243 12.5303 22.4793 12.7142C22.0342 12.8981 21.6294 13.1683 21.2886 13.5086C20.741 14.0561 20.1997 14.8943 19.7054 15.7915C19.204 16.7013 18.7239 17.7226 18.3082 18.6739C17.8919 19.6267 17.5367 20.5178 17.2856 21.1702C17.16 21.4967 17.0602 21.764 16.9917 21.9502C16.9574 22.0433 16.931 22.1161 16.913 22.1659L16.8924 22.223L16.887 22.238L16.8851 22.2435L17.5133 22.4666L17.7366 23.0948L17.7417 23.093L17.7567 23.0876L17.8139 23.0671C17.8638 23.0491 17.9367 23.0226 18.0298 22.9884C18.2162 22.9199 18.4837 22.8201 18.8104 22.6946C19.4633 22.4436 20.355 22.0886 21.3082 21.6727C22.26 21.2575 23.2814 20.778 24.1909 20.2776C25.0874 19.7844 25.9249 19.2444 26.471 18.6984C26.5244 18.6452 26.576 18.5903 26.6258 18.534C26.651 18.5152 26.6752 18.4943 26.6981 18.4714C26.7558 18.4137 26.8007 18.348 26.8328 18.2779C27.0075 18.0406 27.1534 17.7827 27.2669 17.5093C27.4515 17.0646 27.5468 16.5878 27.5471 16.1062C27.5475 15.6246 27.453 15.1477 27.2691 14.7026C27.0852 14.2576 26.8154 13.8531 26.4751 13.5123C26.1348 13.1715 25.7308 12.901 25.286 12.7164C24.8412 12.5318 24.3644 12.4365 23.8829 12.4362ZM20.7751 20.4506C19.9935 20.7916 19.2526 21.0914 18.6559 21.3245C18.8891 20.7285 19.1889 19.9885 19.5301 19.2077C19.8411 18.4958 20.1844 17.7548 20.5408 17.0606L21.2112 15.8467C21.5719 15.247 21.9187 14.7642 22.2311 14.4516C22.448 14.2351 22.7054 14.0635 22.9886 13.9464C23.2718 13.8294 23.5753 13.7693 23.8818 13.7695C24.1883 13.7697 24.4917 13.8303 24.7748 13.9478C25.0579 14.0654 25.315 14.2375 25.5315 14.4543C25.7481 14.6712 25.9198 14.9286 26.0369 15.2119C26.1539 15.4951 26.214 15.7987 26.2138 16.1051C26.2136 16.3776 26.1657 16.6476 26.0725 16.903L25.0581 15.8886C24.7977 15.6282 24.3756 15.6282 24.1152 15.8886C23.8549 16.1489 23.8549 16.571 24.1152 16.8314L25.272 17.9881C24.8553 18.3363 24.2592 18.7183 23.5482 19.1094C22.6877 19.5828 21.7067 20.0442 20.7751 20.4506Z" fill="#8CAD51"/>
<path d="M17.7366 23.0948C17.7366 23.0948 17.7361 23.095 17.5133 22.4666C16.8851 22.2436 16.8851 22.2435 16.8851 22.2435C16.7991 22.4858 16.86 22.7561 17.0418 22.938C17.2236 23.1198 17.4943 23.1807 17.7366 23.0948Z" fill="#8CAD51"/>
<path fill-rule="evenodd" clip-rule="evenodd" d="M26.3579 12.799C26.8207 12.4537 27.5553 12 28.3333 12C29.2681 12 29.9976 12.4305 30.4677 12.8199C30.7057 13.017 30.8894 13.2132 31.0145 13.3611C31.0774 13.4355 31.1264 13.4987 31.161 13.5453C31.1783 13.5686 31.192 13.5878 31.2022 13.6023L31.2147 13.6204L31.2189 13.6266L31.2205 13.629L31.2212 13.63C31.2213 13.6302 31.2218 13.6308 30.6666 14C31.2218 14.3692 31.2216 14.3694 31.2215 14.3696L31.2205 14.371L31.2189 14.3734L31.2147 14.3796L31.2022 14.3977C31.192 14.4122 31.1783 14.4314 31.161 14.4547C31.1264 14.5013 31.0774 14.5645 31.0145 14.6389C30.8894 14.7868 30.7057 14.983 30.4677 15.1801C29.9976 15.5695 29.2681 16 28.3333 16C27.3985 16 26.669 15.5695 26.1989 15.1801C25.9609 14.983 25.7772 14.7868 25.6521 14.6389C25.5892 14.5645 25.5402 14.5013 25.5056 14.4547C25.4883 14.4314 25.4746 14.4122 25.4644 14.3977L25.4519 14.3796L25.4477 14.3734L25.4461 14.371L25.4454 14.37C25.4453 14.3698 25.4448 14.3692 26 14C25.5118 13.546 25.5119 13.5459 25.512 13.5458L25.5128 13.5449L25.5143 13.5433L25.5186 13.5387L25.5326 13.524C25.5443 13.5118 25.5606 13.4949 25.5813 13.474C25.6225 13.4323 25.6813 13.3742 25.7548 13.3053C25.9011 13.1682 26.1096 12.9844 26.3579 12.799ZM26 14L25.512 13.5458C25.3019 13.7716 25.274 14.1123 25.4448 14.3692L26 14ZM26.9281 14.0471C26.966 14.0821 27.0064 14.1177 27.0493 14.1532C27.3842 14.4305 27.8214 14.6667 28.3333 14.6667C28.8452 14.6667 29.2824 14.4305 29.6172 14.1532C29.6795 14.1016 29.7367 14.0499 29.7883 14C29.7367 13.9501 29.6795 13.8984 29.6172 13.8468C29.2824 13.5695 28.8452 13.3333 28.3333 13.3333C28.018 13.3333 27.5859 13.5463 27.1554 13.8676C27.0744 13.9281 26.9981 13.9887 26.9281 14.0471ZM30.6666 14L31.2215 14.3696C31.3702 14.1459 31.3705 13.8545 31.2218 13.6308L30.6666 14Z" fill="#8CAD51"/>
<path fill-rule="evenodd" clip-rule="evenodd" d="M26.3692 8.77823L26 9.33335L25.6308 8.77823C25.8545 8.62951 26.1455 8.62951 26.3692 8.77823ZM26 14C25.6308 14.5551 25.6306 14.555 25.6304 14.5549L25.629 14.5539L25.6266 14.5523L25.6204 14.5481L25.6023 14.5356C25.5878 14.5254 25.5686 14.5117 25.5453 14.4943C25.4987 14.4598 25.4355 14.4108 25.3611 14.3479C25.2132 14.2228 25.017 14.0391 24.8199 13.8011C24.4305 13.3309 24 12.6015 24 11.6667C24 10.7319 24.4305 10.0024 24.8199 9.5323C25.017 9.29426 25.2132 9.11058 25.3611 8.98549C25.4355 8.92261 25.4987 8.8736 25.5453 8.83902C25.5686 8.82171 25.5878 8.80795 25.6023 8.79781L25.6204 8.7853L25.6266 8.78108L25.629 8.77948L25.63 8.77881C25.6302 8.77867 25.6308 8.77823 26 9.33335C26.3692 8.77823 26.3689 8.77808 26.3692 8.77823L26.37 8.77881L26.371 8.77948L26.3734 8.78108L26.3796 8.7853L26.3977 8.79781C26.4122 8.80795 26.4314 8.82171 26.4547 8.83902C26.5013 8.8736 26.5645 8.92261 26.6389 8.98549C26.7868 9.11058 26.983 9.29426 27.1801 9.5323C27.5695 10.0024 28 10.7319 28 11.6667C28 12.4508 27.5472 13.1849 27.2002 13.648C27.0145 13.8959 26.8303 14.1035 26.6929 14.2489C26.6238 14.322 26.5656 14.3804 26.5237 14.4215C26.5028 14.442 26.4858 14.4582 26.4735 14.4699L26.4587 14.4838L26.4541 14.4881L26.4525 14.4896L26.4519 14.4902C26.4517 14.4903 26.4514 14.4906 26 14ZM26 14L25.6304 14.5549C25.8861 14.7249 26.2254 14.6986 26.4514 14.4906L26 14ZM25.9546 13.0737C26.0126 13.0044 26.073 12.9289 26.1331 12.8487C26.4528 12.4218 26.6667 11.9893 26.6667 11.6667C26.6667 11.1548 26.4305 10.7176 26.1532 10.3827C26.1016 10.3204 26.0499 10.2633 26 10.2117C25.9501 10.2633 25.8984 10.3204 25.8468 10.3827C25.5695 10.7176 25.3333 11.1548 25.3333 11.6667C25.3333 12.1786 25.5695 12.6158 25.8468 12.9506C25.8829 12.9942 25.919 13.0353 25.9546 13.0737Z" fill="#8CAD51"/>
</g>
<path d="M40.3352 11.2727V20H38.7926V11.2727H40.3352ZM44.8192 20.1278C44.163 20.1278 43.5962 19.9915 43.119 19.7188C42.6445 19.4432 42.2795 19.054 42.0238 18.5511C41.7681 18.0455 41.6403 17.4503 41.6403 16.7656C41.6403 16.0923 41.7681 15.5014 42.0238 14.9929C42.2823 14.4815 42.6431 14.0838 43.1062 13.7997C43.5692 13.5128 44.1133 13.3693 44.7383 13.3693C45.1417 13.3693 45.5224 13.4347 45.8803 13.5653C46.2411 13.6932 46.5593 13.892 46.8349 14.1619C47.1133 14.4318 47.332 14.7756 47.4911 15.1932C47.6502 15.608 47.7298 16.1023 47.7298 16.6761V17.1491H42.3647V16.1094H46.2511C46.2482 15.8139 46.1843 15.5511 46.0593 15.321C45.9343 15.0881 45.7596 14.9048 45.5352 14.7713C45.3136 14.6378 45.055 14.571 44.7596 14.571C44.4442 14.571 44.1673 14.6477 43.9286 14.8011C43.69 14.9517 43.5039 15.1506 43.3704 15.3977C43.2397 15.642 43.1729 15.9105 43.1701 16.2031V17.1108C43.1701 17.4915 43.2397 17.8182 43.3789 18.0909C43.5181 18.3608 43.7127 18.5682 43.9627 18.7131C44.2127 18.8551 44.5053 18.9261 44.8406 18.9261C45.065 18.9261 45.2681 18.8949 45.4499 18.8324C45.6317 18.767 45.7894 18.6719 45.9229 18.5469C46.0565 18.4219 46.1573 18.267 46.2255 18.0824L47.6658 18.2443C47.5749 18.625 47.4016 18.9574 47.146 19.2415C46.8931 19.5227 46.5692 19.7415 46.1744 19.8977C45.7795 20.0511 45.3278 20.1278 44.8192 20.1278ZM51.8814 22.5909C51.3274 22.5909 50.8516 22.5156 50.4538 22.3651C50.0561 22.2173 49.7365 22.0185 49.495 21.7685C49.2536 21.5185 49.0859 21.2415 48.9922 20.9375L50.3814 20.6009C50.4439 20.7287 50.5348 20.8551 50.6541 20.9801C50.7734 21.108 50.9339 21.2131 51.1357 21.2955C51.3402 21.3807 51.5973 21.4233 51.907 21.4233C52.3445 21.4233 52.7067 21.3168 52.9936 21.1037C53.2805 20.8935 53.424 20.5469 53.424 20.0639V18.8239H53.3473C53.2678 18.983 53.1513 19.1463 52.9979 19.3139C52.8473 19.4815 52.647 19.6222 52.397 19.7358C52.1499 19.8494 51.8388 19.9062 51.4638 19.9062C50.9609 19.9062 50.505 19.7884 50.0959 19.5526C49.6896 19.3139 49.3658 18.9588 49.1243 18.4872C48.8857 18.0128 48.7663 17.419 48.7663 16.706C48.7663 15.9872 48.8857 15.3807 49.1243 14.8864C49.3658 14.3892 49.6911 14.0128 50.1001 13.7571C50.5092 13.4986 50.9652 13.3693 51.468 13.3693C51.8516 13.3693 52.1669 13.4347 52.4141 13.5653C52.6641 13.6932 52.8629 13.848 53.0107 14.0298C53.1584 14.2088 53.2706 14.3778 53.3473 14.5369H53.4325V13.4545H54.9538V20.1065C54.9538 20.6662 54.8203 21.1293 54.5533 21.4957C54.2862 21.8622 53.9212 22.1364 53.4581 22.3182C52.995 22.5 52.4695 22.5909 51.8814 22.5909ZM51.8942 18.696C52.2209 18.696 52.4993 18.6165 52.7294 18.4574C52.9595 18.2983 53.1342 18.0696 53.2536 17.7713C53.3729 17.473 53.4325 17.1151 53.4325 16.6974C53.4325 16.2855 53.3729 15.9247 53.2536 15.6151C53.1371 15.3054 52.9638 15.0653 52.7337 14.8949C52.5064 14.7216 52.2266 14.6349 51.8942 14.6349C51.5504 14.6349 51.2635 14.7244 51.0334 14.9034C50.8033 15.0824 50.63 15.3281 50.5135 15.6406C50.397 15.9503 50.3388 16.3026 50.3388 16.6974C50.3388 17.098 50.397 17.4489 50.5135 17.75C50.6328 18.0483 50.8075 18.2812 51.0376 18.4489C51.2706 18.6136 51.5561 18.696 51.8942 18.696ZM60.7067 17.2472V13.4545H62.2493V20H60.7536V18.8366H60.6854C60.5376 19.2031 60.2947 19.5028 59.9567 19.7358C59.6214 19.9687 59.2081 20.0852 58.7166 20.0852C58.2876 20.0852 57.9084 19.9901 57.5788 19.7997C57.2521 19.6065 56.9964 19.3267 56.8118 18.9602C56.6271 18.5909 56.5348 18.1449 56.5348 17.6222V13.4545H58.0774V17.3835C58.0774 17.7983 58.1911 18.1278 58.4183 18.3722C58.6456 18.6165 58.9439 18.7386 59.3132 18.7386C59.5405 18.7386 59.7607 18.6832 59.9737 18.5724C60.1868 18.4616 60.3615 18.2969 60.4979 18.0781C60.6371 17.8565 60.7067 17.5795 60.7067 17.2472ZM63.8356 20V13.4545H65.31V14.5668H65.3867C65.5231 14.1918 65.7489 13.8991 66.0643 13.6889C66.3796 13.4759 66.756 13.3693 67.1935 13.3693C67.6367 13.3693 68.0103 13.4773 68.3143 13.6932C68.6211 13.9062 68.837 14.1974 68.962 14.5668H69.0302C69.1751 14.2031 69.4194 13.9134 69.7631 13.6974C70.1097 13.4787 70.5202 13.3693 70.9947 13.3693C71.5969 13.3693 72.0884 13.5597 72.4691 13.9403C72.8498 14.321 73.0401 14.8764 73.0401 15.6065V20H71.4933V15.8452C71.4933 15.4389 71.3853 15.142 71.1694 14.9545C70.9535 14.7642 70.6893 14.669 70.3768 14.669C70.0046 14.669 69.7134 14.7855 69.5032 15.0185C69.2958 15.2486 69.1921 15.5483 69.1921 15.9176V20H67.6793V15.7812C67.6793 15.4432 67.5771 15.1733 67.3725 14.9716C67.1708 14.7699 66.9066 14.669 66.5799 14.669C66.3583 14.669 66.1566 14.7259 65.9748 14.8395C65.793 14.9503 65.6481 15.108 65.5401 15.3125C65.4322 15.5142 65.3782 15.75 65.3782 16.0199V20H63.8356ZM77.5028 20.1278C76.8466 20.1278 76.2798 19.9915 75.8026 19.7188C75.3281 19.4432 74.9631 19.054 74.7074 18.5511C74.4517 18.0455 74.3239 17.4503 74.3239 16.7656C74.3239 16.0923 74.4517 15.5014 74.7074 14.9929C74.9659 14.4815 75.3267 14.0838 75.7898 13.7997C76.2528 13.5128 76.7969 13.3693 77.4219 13.3693C77.8253 13.3693 78.206 13.4347 78.5639 13.5653C78.9247 13.6932 79.2429 13.892 79.5185 14.1619C79.7969 14.4318 80.0156 14.7756 80.1747 15.1932C80.3338 15.608 80.4134 16.1023 80.4134 16.6761V17.1491H75.0483V16.1094H78.9347C78.9318 15.8139 78.8679 15.5511 78.7429 15.321C78.6179 15.0881 78.4432 14.9048 78.2188 14.7713C77.9972 14.6378 77.7386 14.571 77.4432 14.571C77.1278 14.571 76.8509 14.6477 76.6122 14.8011C76.3736 14.9517 76.1875 15.1506 76.054 15.3977C75.9233 15.642 75.8565 15.9105 75.8537 16.2031V17.1108C75.8537 17.4915 75.9233 17.8182 76.0625 18.0909C76.2017 18.3608 76.3963 18.5682 76.6463 18.7131C76.8963 18.8551 77.1889 18.9261 77.5241 18.9261C77.7486 18.9261 77.9517 18.8949 78.1335 18.8324C78.3153 18.767 78.473 18.6719 78.6065 18.5469C78.7401 18.4219 78.8409 18.267 78.9091 18.0824L80.3494 18.2443C80.2585 18.625 80.0852 18.9574 79.8295 19.2415C79.5767 19.5227 79.2528 19.7415 78.858 19.8977C78.4631 20.0511 78.0114 20.1278 77.5028 20.1278Z" fill="#8CAD51"/>
<defs>
<clipPath id="clip0_838_98">
<rect width="16" height="16" fill="white" transform="translate(16 8)"/>
</clipPath>
</defs>
</svg>
